# xmcd
#
# Track frame offsets: 
#        150
#        18526
#        30580
#        41691
#        57433
#        72199
#        88868
#        103498
#        122164
#        139911
#        151945
#        166089
#        182305
#        195695
#        211126
#        226986
#        239808
#        256981
#        272923
#        286906
#
# Disc length: 4052 seconds
#
# Revision: 3
# Processed by: cddbd v1.5.2PL0 Copyright (c) Steve Scherf et al.
# Submitted via: ExactAudioCopy v0.99pb5
#
DISCID=240fd214
DTITLE=Various Artist - HC33
DYEAR=1998
DGENRE=Country
TTITLE0=Faith Hill - Let Me Let Go
TTITLE1=Clay Walker - You're Beginning To Get To Me
TTITLE2=George Strait - We Really Shouldn't Be Doing This
TTITLE3=Deana Carter - Absence Of The Heart
TTITLE4=Toby Keith - Getcha Some
TTITLE5=Pam Tillis - Every Time
TTITLE6=Martina Mcbride - Wrong Again
TTITLE7=Joe Diffie - Poor Me
TTITLE8=Warren Brothers - Guilty
TTITLE9=Rick Trevino - Only Lonely Me
TTITLE10=Brooks and Dunn - Husbands and Wives
TTITLE11=Deryl Dodd - A Bitter End
TTITLE12=Michael Peterson - By The Book
TTITLE13=Mark Chesnutt - Wherever You Are
TTITLE14=Dwight Yokam - These Arms
TTITLE15=Gil Grand - Let's Start Livin'
TTITLE16=Randy Travis - Spirit Of A Boy, Wisdom Of A Man
TTITLE17=Lari White - Take Me
TTITLE18=Vince Gill - Kindly Keep It Country
TTITLE19=Paul Brandt - Outside The Frame
EXTD=
EXTT0=
EXTT1=
EXTT2=
EXTT3=
EXTT4=
EXTT5=
EXTT6=
EXTT7=
EXTT8=
EXTT9=
EXTT10=
EXTT11=
EXTT12=
EXTT13=
EXTT14=
EXTT15=
EXTT16=
EXTT17=
EXTT18=
EXTT19=
PLAYORDER=
